{
  "source": "C:\\Users\\Peter\\Desktop\\stuff\\MIUN\\quantitative_research\\video_compression\\videos\\BVI-HD\\BVI-HD_CDVL_videos\\ORIG\\PlasmaSlowRandom_1920x1080_60fps.mp4",
  "output": "C:\\Users\\Peter\\Desktop\\stuff\\MIUN\\quantitative_research\\video_compression\\compressed_videos\\BVI-HD\\vp9\\4\\PlasmaSlowRandom_1920x1080_60fps_vp9.webm",
  "codec": "vp9",
  "ok": "Input #0, mov,mp4,m4a,3gp,3g2,mj2, from 'C:\\Users\\Peter\\Desktop\\stuff\\MIUN\\quantitative_research\\video_compression\\videos\\BVI-HD\\BVI-HD_CDVL_videos\\ORIG\\PlasmaSlowRandom_1920x1080_60fps.mp4':\n  Metadata:\n    major_brand     : isom\n    minor_version   : 512\n    compatible_brands: isomiso2avc1mp41\n    encoder         : Lavf54.28.101\n  Duration: 00:00:05.00, start: 0.000000, bitrate: 23030 kb/s\n  Stream #0:0[0x1](und): Video: h264 (High 4:4:4 Predictive) (avc1 / 0x31637661), yuv420p(progressive), 1920x1080, 23026 kb/s, 60 fps, 60 tbr, 60 tbn (default)\n    Metadata:\n      handler_name    : VideoHandler\n      vendor_id       : [0][0][0][0]\n[out#0/webm @ 0000011995145040] Codec AVOption b:a (set bitrate (in bits/s)) has not been used for any stream. The most likely reason is either wrong type (e.g. a video option with no video streams) or that it is a private option of some decoder which was not actually used for any stream.\nStream mapping:\n  Stream #0:0 -> #0:0 (h264 (native) -> vp9 (libvpx-vp9))\nPress [q] to stop, [?] for help\n[libvpx-vp9 @ 0000011994be4a00] v1.15.2-100-g40561f514\nOutput #0, webm, to 'C:\\Users\\Peter\\Desktop\\stuff\\MIUN\\quantitative_research\\video_compression\\compressed_videos\\BVI-HD\\vp9\\4\\PlasmaSlowRandom_1920x1080_60fps_vp9.webm':\n  Metadata:\n    major_brand     : isom\n    minor_version   : 512\n    compatible_brands: isomiso2avc1mp41\n    encoder         : Lavf62.3.100\n  Stream #0:0(und): Video: vp9, yuv420p(tv, progressive), 1920x1080, q=2-31, 4000 kb/s, 60 fps, 1k tbn (default)\n    Metadata:\n      encoder         : Lavc62.11.100 libvpx-vp9\n      handler_name    : VideoHandler\n      vendor_id       : [0][0][0][0]\n    Side data:\n      cpb: bitrate max/min/avg: 0/0/0 buffer size: 4000000 vbv_delay: N/A\nframe=    6 fps=0.0 q=32.0 size=       1KiB time=00:00:00.10 bitrate=  50.6kbits/s speed=0.196x elapsed=0:00:00.50    \nframe=   16 fps= 15 q=24.0 size=       1KiB time=00:00:00.26 bitrate=  19.0kbits/s speed=0.257x elapsed=0:00:01.03    \nframe=   25 fps= 16 q=14.0 size=       1KiB time=00:00:00.41 bitrate=  12.2kbits/s speed=0.267x elapsed=0:00:01.56    \nframe=   34 fps= 16 q=24.0 size=       1KiB time=00:00:00.56 bitrate=   8.9kbits/s speed=0.271x elapsed=0:00:02.09    \nframe=   42 fps= 16 q=27.0 size=       1KiB time=00:00:00.70 bitrate=   7.2kbits/s speed=0.268x elapsed=0:00:02.61    \nframe=   51 fps= 16 q=27.0 size=       1KiB time=00:00:00.85 bitrate=   6.0kbits/s speed=0.27x elapsed=0:00:03.14    \nframe=   60 fps= 16 q=27.0 size=       1KiB time=00:00:01.00 bitrate=   5.1kbits/s speed=0.272x elapsed=0:00:03.67    \nframe=   69 fps= 16 q=28.0 size=       1KiB time=00:00:01.15 bitrate=   4.4kbits/s speed=0.275x elapsed=0:00:04.18    \nframe=   78 fps= 17 q=28.0 size=       1KiB time=00:00:01.30 bitrate=   3.9kbits/s speed=0.276x elapsed=0:00:04.71    \nframe=   88 fps= 17 q=26.0 size=       1KiB time=00:00:01.46 bitrate=   3.5kbits/s speed=0.28x elapsed=0:00:05.23    \nframe=   96 fps= 17 q=26.0 size=       1KiB time=00:00:01.60 bitrate=   3.2kbits/s speed=0.278x elapsed=0:00:05.76    \nframe=  105 fps= 17 q=28.0 size=       1KiB time=00:00:01.75 bitrate=   2.9kbits/s speed=0.278x elapsed=0:00:06.29    \nframe=  114 fps= 17 q=30.0 size=       1KiB time=00:00:01.90 bitrate=   2.7kbits/s speed=0.279x elapsed=0:00:06.81    \nframe=  123 fps= 17 q=31.0 size=       1KiB time=00:00:02.05 bitrate=   2.5kbits/s speed=0.28x elapsed=0:00:07.32    \nframe=  132 fps= 17 q=32.0 size=     512KiB time=00:00:02.20 bitrate=1906.5kbits/s speed=0.281x elapsed=0:00:07.84    \nframe=  142 fps= 17 q=27.0 size=     512KiB time=00:00:02.36 bitrate=1772.2kbits/s speed=0.283x elapsed=0:00:08.35    \nframe=  150 fps= 17 q=28.0 size=     512KiB time=00:00:02.50 bitrate=1677.7kbits/s speed=0.282x elapsed=0:00:08.87    \nframe=  159 fps= 17 q=28.0 size=     512KiB time=00:00:02.65 bitrate=1582.8kbits/s speed=0.282x elapsed=0:00:09.40    \nframe=  169 fps= 17 q=27.0 size=     512KiB time=00:00:02.81 bitrate=1489.1kbits/s speed=0.284x elapsed=0:00:09.92    \nframe=  178 fps= 17 q=28.0 size=     512KiB time=00:00:02.95 bitrate=1421.8kbits/s speed=0.283x elapsed=0:00:10.43    \nframe=  187 fps= 17 q=26.0 size=     512KiB time=00:00:03.11 bitrate=1345.8kbits/s speed=0.284x elapsed=0:00:10.98    \nframe=  198 fps= 17 q=27.0 size=     512KiB time=00:00:03.30 bitrate=1271.0kbits/s speed=0.287x elapsed=0:00:11.49    \nframe=  206 fps= 17 q=28.0 size=     512KiB time=00:00:03.43 bitrate=1221.6kbits/s speed=0.285x elapsed=0:00:12.02    \nframe=  215 fps= 17 q=28.0 size=     512KiB time=00:00:03.58 bitrate=1170.5kbits/s speed=0.285x elapsed=0:00:12.55    \nframe=  225 fps= 17 q=26.0 size=     512KiB time=00:00:03.75 bitrate=1118.5kbits/s speed=0.287x elapsed=0:00:13.08    \nframe=  233 fps= 17 q=29.0 size=     512KiB time=00:00:03.88 bitrate=1080.1kbits/s speed=0.285x elapsed=0:00:13.61    \nframe=  242 fps= 17 q=27.0 size=     512KiB time=00:00:04.03 bitrate=1039.9kbits/s speed=0.285x elapsed=0:00:14.13    \nframe=  252 fps= 17 q=26.0 size=     512KiB time=00:00:04.20 bitrate= 998.6kbits/s speed=0.287x elapsed=0:00:14.63    \nframe=  261 fps= 17 q=26.0 size=    1024KiB time=00:00:04.35 bitrate=1928.4kbits/s speed=0.287x elapsed=0:00:15.15    \nframe=  270 fps= 17 q=29.0 size=    1024KiB time=00:00:04.50 bitrate=1864.1kbits/s speed=0.287x elapsed=0:00:15.67    \nframe=  276 fps= 17 q=27.0 size=    1024KiB time=00:00:04.60 bitrate=1823.6kbits/s speed=0.284x elapsed=0:00:16.18    \nframe=  276 fps= 17 q=27.0 size=    1024KiB time=00:00:04.60 bitrate=1823.6kbits/s speed=0.275x elapsed=0:00:16.70    \nframe=  276 fps= 16 q=27.0 size=    1024KiB time=00:00:04.60 bitrate=1823.6kbits/s speed=0.267x elapsed=0:00:17.25    \n[out#0/webm @ 0000011995145040] video:1361KiB audio:0KiB subtitle:0KiB other streams:0KiB global headers:0KiB muxing overhead: 0.202714%\nframe=  300 fps= 17 q=28.0 Lsize=    1364KiB time=00:00:05.00 bitrate=2234.3kbits/s speed=0.288x elapsed=0:00:17.36    \n",
  "seconds": 17.55164337158203,
  "probe_out": {}
}